PathFileType	4	(X/Y/Z)	Run_400 01
DataRate	CameraRate	NumFrames	NumMarkers	Units	OrigDataRate	OrigDataStartFrame	OrigNumFrames
120	120	4	42	mm	120	204	128
Frame#	Time	LASI			RASI			LPSI			RPSI			RTH1			RTH2			RTH3			LTH1			LTH2			LTH3			RTB1			RTB2			RTB3			LTB1			LTB2			LTB3			RCAL			RTOE			RMT5			LCAL			LTOE			LMT5			LACR			RACR			CLAV			C7			RUA1			RUA2			RUA3			RLEL			RMEL			LUA1			LUA2			LUA3			LLEL			LMEL			RFAsuperior			RFAradius			RFAulna			LFAsuperior			LFAradius			LFAulna			
		X1	Y1	Z1	X2	Y2	Z2	X3	Y3	Z3	X4	Y4	Z4	X5	Y5	Z5	X6	Y6	Z6	X7	Y7	Z7	X8	Y8	Z8	X9	Y9	Z9	X10	Y10	Z10	X11	Y11	Z11	X12	Y12	Z12	X13	Y13	Z13	X14	Y14	Z14	X15	Y15	Z15	X16	Y16	Z16	X17	Y17	Z17	X18	Y18	Z18	X19	Y19	Z19	X20	Y20	Z20	X21	Y21	Z21	X22	Y22	Z22	X23	Y23	Z23	X24	Y24	Z24	X25	Y25	Z25	X26	Y26	Z26	X27	Y27	Z27	X28	Y28	Z28	X29	Y29	Z29	X30	Y30	Z30	X31	Y31	Z31	X32	Y32	Z32	X33	Y33	Z33	X34	Y34	Z34	X35	Y35	Z35	X36	Y36	Z36	X37	Y37	Z37	X38	Y38	Z38	X39	Y39	Z39	X40	Y40	Z40	X41	Y41	Z41	X42	Y42	Z42	

204	1.775	741.3250430000001	972.3531	-502.458855	760.248431	958.847497	-254.609284	573.817537	987.958164	-398.843803	583.990645	987.492815	-313.542528	709.407244	769.7542110000001	-219.085478	754.2833000000001	648.845	-237.824716	669.527301	537.228664	-227.735203	722.696907	838.7592959999999	-550.7896469999999	817.909362	753.703175	-538.616949	803.943862	601.572346	-535.2046329999999	540.773381	441.994453	-289.005236	488.458435	503.773031	-240.378964	379.100699	522.082929	-309.14994	865.339936	374.280924	-449.607123	801.3928560000001	276.694362	-496.336324	796.400725	196.920566	-418.022026	311.921755	664.2656480000001	-334.717076	186.112538	486.600984	-300.41252	187.306542	542.418076	-222.686186	649.996475	103.270911	-414.386383	866.323501	73.498144	-410.591045	836.024371	60.012643	-497.950029	723.1925649999999	1404.865019	-586.751381	768.6158809999999	1419.661376	-210.405981	839.318359	1365.8879	-382.619694	710.231744	1464.678596	-403.372132	738.527246	1317.310738	-140.807935	743.982668	1245.199081	-141.075956	657.460192	1251.8317	-83.364177	680.03142	1165.671395	-47.943776	612.191177	1147.723936	-103.882744	675.444678	1353.187302	-645.109019	604.883021	1296.745551	-636.858559	641.4208599999999	1283.672947	-703.838976	592.817674	1204.894228	-765.638592	560.44985	1142.66365	-707.452805	749.082934	1131.597584	-84.698334	854.6610480000001	1071.608004	-203.221463	824.2376369999999	1018.566566	-170.465703	664.764493	1205.054292	-765.561092	822.268209	1179.424453	-687.862837	815.488366	1125.351483	-728.966157	
205	1.783333	739.589438	972.447622	-504.35972	757.549164	958.7600200000001	-252.866152	572.863144	989.7434929999999	-397.380071	582.132174	988.783897	-311.797829	713.167156	768.208991	-218.395399	765.976804	649.858694	-236.804395	688.709688	535.669877	-225.079264	717.8665580000001	838.47767	-551.591414	809.285439	749.587173	-540.3558870000001	788.15931	596.510328	-535.231211	564.905631	439.745611	-287.277621	513.430612	501.472442	-238.052434	403.696111	520.167248	-306.01278	844.729587	368.012976	-452.261405	775.385407	272.62573	-496.959543	767.982375	193.896181	-418.853911	335.908589	663.971573	-331.682644	211.216076	484.767134	-297.049213	214.175531	539.844516	-219.139078	616.989491	104.130269	-414.651643	833.021003	72.4079	-410.823822	802.350072	59.203239	-498.185951	723.416828	1401.398256	-587.66662	765.3836669999999	1417.915348	-209.792849	839.8044169999999	1363.833939	-379.897165	710.45559	1463.860982	-404.45541	732.588764	1316.124358	-140.986926	734.8009	1243.772157	-143.017027	647.726953	1252.236287	-87.056685	668.371968	1165.9522	-49.302267	602.198628	1148.372843	-106.874876	677.3406189999999	1346.060784	-645.7629899999999	611.084712	1283.875263	-636.983832	648.470883	1274.663868	-704.387321	607.811051	1193.153869	-767.454141	577.6588850000001	1128.841478	-711.617838	737.052281	1127.807205	-83.218101	843.841111	1057.453522	-193.93282	809.77309	1007.2882	-160.025703	679.878336	1196.624713	-764.474634	836.204241	1176.948611	-685.348434	832.661642	1123.473792	-728.088042	
206	1.791667	738.193579	973.858798	-506.493999	754.534325	960.498035	-251.019787	571.630897	992.0085780000001	-397.2727	580.1078649999999	990.9030310000001	-311.094853	717.086408	768.143613	-217.813578	778.614708	652.742892	-236.319067	708.848751	536.127924	-222.808018	713.547202	838.202189	-552.0445120000001	798.89811	743.898381	-541.477764	769.358741	591.169661	-534.323077	590.254287	438.534587	-285.966099	539.31434	499.394552	-235.818833	428.898445	517.133025	-303.347949	821.741953	360.476649	-454.416938	747.399719	267.560249	-496.925657	737.6594260000001	190.361086	-419.154668	357.842771	662.021822	-327.900552	237.108194	479.286576	-295.771726	240.931208	532.418376	-216.509054	583.357989	104.759574	-415.034524	799.129192	71.590611	-411.117674	768.275217	58.675213	-498.601513	723.875623	1399.001155	-588.032294	761.682244	1417.608002	-209.351825	839.384688	1363.997209	-377.612358	710.261426	1463.827263	-404.978687	726.178933	1316.620725	-141.027529	726.238074	1244.227579	-144.065847	637.669167	1254.188632	-91.081813	656.431723	1167.953503	-50.888808	591.734143	1150.764487	-110.083373	680.104187	1340.332845	-645.894644	618.335956	1272.753272	-635.52057	655.643634	1267.198435	-703.658056	623.084906	1182.890356	-767.7206	595.551904	1116.91701	-713.888447	724.630164	1125.9025	-82.002843	831.925076	1046.114736	-184.917969	794.102157	998.790485	-150.881802	695.14673	1189.443452	-762.259098	850.441465	1175.865748	-681.289539	849.807698	1123.269484	-725.734058	
207	1.8	736.977002	975.734371	-508.205637	751.4743999999999	962.872797	-249.858999	569.766377	994.344632	-398.354175	577.8778139999999	992.834068	-311.773489	721.244083	769.735698	-217.228183	791.944991	657.888658	-236.054157	729.551249	538.721977	-220.91844	709.022454	838.062169	-552.394683	786.913231	737.4548579999999	-542.482226	749.4757520000001	587.036054	-533.34173	616.572726	438.934997	-284.868694	565.630533	498.058142	-233.702927	454.096762	513.345636	-301.263749	796.773537	353.373567	-455.669291	718.47254	263.085401	-496.611535	706.463047	187.512984	-419.0615	377.32281	658.179265	-323.655379	263.746038	470.316068	-296.313421	267.150707	520.741821	-214.830438	549.629868	105.375624	-415.334851	765.1307839999999	71.123255	-411.534698	734.151832	58.472339	-499.112877	725.028316	1397.7821	-587.850039	757.576673	1418.639925	-208.914391	838.4413939999999	1365.878973	-375.619969	709.471495	1464.322824	-405.013902	719.0805350000001	1318.75711	-140.798536	718.164641	1246.468668	-143.52967	627.290851	1257.707489	-95.046988	643.9298	1171.515314	-52.29028	580.972314	1154.893595	-113.409015	684.1594	1335.99714	-645.621559	626.399231	1264.021883	-633.101874	663.149224	1261.234312	-701.980606	637.960188	1174.26667	-766.461429	613.666252	1107.18357	-713.814032	711.580652	1125.703752	-80.471273	819.441918	1038.450434	-176.375223	777.8297209999999	993.600681	-143.316831	710.0388390000001	1183.629122	-759.230258	864.482311	1176.455398	-675.593757	866.501427	1124.864172	-721.6603710000001	
